<svg xmlns="http://www.w3.org/2000/svg" viewBox="0 0 400 400"><defs><style>.cls-1{fill:#fff;}.cls-2{fill:#b6c339;}.cls-3{fill:#1fa097;}</style></defs><g id="Capa_2" data-name="Capa 2"><g id="Capa_2-2" data-name="Capa 2"><rect class="cls-1" width="400" height="400"/></g><g id="Capa_1-2" data-name="Capa 1"><path class="cls-2" d="M347.08,176.25a5.42,5.42,0,0,1-.14-.64c-.71-4.89,2.93-11.74,9.49-11.61,3.67.07,11.21,1.19,11.41,12.89l23.53-.77c-.8-7.63-.59-34.37-33.82-33.31-16.14.51-26.75,5.66-33.44,26.49-1.15,3.58-1.11,10.61-.31,15.44C335.64,178.6,344.23,176.74,347.08,176.25Z"/><path class="cls-2" d="M385.33,200.75c-2.05-1.74-11.73-7.76-18.92-11-4.48-2-10.49-4.67-12.85-5.51-3-1.08-5.42-5-6.29-7.41L327.6,193.78c4.16,6.8,10.69,13.35,23.9,16.94,19.68,5.33,21.26,19,12,26-3.55,2.7-13.58,3.66-18.34-3.8-1.43-2.24-2.43-9-2.7-11.57l-23.7,0c.35,4.79,1.21,27.27,18.75,36.3,6.62,3.41,25.27,9,42.63-3.66,5.45-4,12.36-15.5,13.38-22.75C394.14,227.15,396.05,209.88,385.33,200.75Z"/><path class="cls-3" d="M309.62,202.36,289.82,224,261,261.13s5.55.59,12.61-3.32c4.88-2.71,10.55-11.47,10.55-11.47l.51,12.86h24.95Z"/><path class="cls-3" d="M191.68,183.23a93.81,93.81,0,0,1,16.86,2.05c9.26,2.06,11.83,4.38,11.83,4.38s-3.92,16.46,0,25,9.77,15.43,18,18c19.48,6.09,33.44-6.69,33.44-6.69s-14.1,17.13-17.87,22.21-13.25,13-13.25,13c-.41-.19-18.86-4.07-29.58-13.37C182.64,223.1,191.68,183.23,191.68,183.23Z"/><path class="cls-3" d="M275.93,219.75c.54.68,1.1-1.13,19.55-18.43,8.73-8.2,14.14-10.63,14.14-10.63v-44.5H284.16l.77,12.6s-10.77-14.24-28.81-15.95c-43.47-4.11-57.87,28-57.87,28a131.34,131.34,0,0,1,15.42,3.89,25.61,25.61,0,0,1,10.81,6.53s10.55-9.91,19-11.45c5.92-1.07,18.79.84,23.66,4.37,4.71,3.42,12.34,13.32,13.38,19a38.32,38.32,0,0,1-3.6,24.56"/><polygon class="cls-2" points="105.69 242.99 105.52 254.82 96.18 254.82 105.69 242.99"/><path class="cls-2" d="M6.66,141.13,5.94,254.87l26.7-.05V195.93s-.07-7.57.35-10.39c.29-2,2.4-9,2.4-9s-7.58-3.61-10.13-4.74c-5.31-2.34,14.33-.54,14.33-.54s5.57-7.63,20.49-6.43C83.32,166.66,80,192.35,80,192.35s8.09,8,10.58,10.85c4.63,5.32,11.17,14.94,11.17,14.94l-10.48-7.2L79.71,202.6V253l26.39-33.17s.32-27.77,1.82-36.88c1-6,4.3-15.05,16.81-17.49,20.23-3.95,24.69,11,24.69,11s9.68-5.1,13.12-6.31c3.24-1.13,13.37-3.08,13.37-3.08S172.4,146.7,151.65,141c-35.2-9.75-49,16.37-49,16.37s-10.45-18.22-38.23-19.25c-18.06-.67-32.25,14.62-32.25,14.62l-.26-11.57Z"/><path class="cls-2" d="M152.51,193.34s9.75-5.15,12.86-6.6c3.34-1.55,12.86-5.23,12.86-5.23v73.31H152.51Z"/></g></g></svg>